<svg fill="none" height="230" viewBox="0 0 238 230" width="238" xmlns="http://www.w3.org/2000/svg">
    <g clip-path="url(#clip0)">
        <path
            d="M13.798 153.608C13.798 153.608 33.6378 152.449 53.4777 172.185C53.4777 172.185 38.3075 177.99 35.9727 194.248C35.9684 194.248 9.12829 191.929 13.798 153.608Z"
            fill="url(#paint0_linear)" />
        <path
            d="M0.219971 130.049C3.72011 139.338 11.89 149.79 11.89 146.307C11.89 142.825 13.0553 140.502 13.0553 140.502C84.2405 178.819 102.915 110.313 102.915 110.313C113.42 155.6 93.5799 160.242 64.4049 176.5C35.2299 192.757 57.4046 217.14 57.4046 217.14C60.9048 186.952 81.9099 178.823 81.9099 178.823C44.5651 234.557 118.085 229.915 118.085 229.915C105.25 218.304 105.25 206.692 140.26 178.823C175.27 150.954 137.925 106.831 137.925 106.831C189.275 137.019 170.6 211.334 170.6 211.334C274.465 111.477 133.255 69.6732 133.255 69.6732C181.105 73.1515 212.615 109.15 212.615 109.15C200.462 64.0798 175.765 53.3559 173.166 52.3409C213.865 68.3311 237.12 22.0635 237.12 22.0635C237.12 22.0635 225.45 44.127 170.6 18.5809C115.75 -6.96519 81.9099 18.5809 81.9099 18.5809C83.0752 5.80574 90.0798 0 90.0798 0C18.8903 30.1882 35.2299 76.6341 35.2299 76.6341C22.3947 90.5687 3.72011 121.921 3.72011 121.921C13.0553 120.761 20.0598 124.244 20.0598 124.244L14.2248 130.049C7.22026 137.015 0.219971 130.049 0.219971 130.049ZM74.9096 60.3806C83.0795 32.5113 114.589 46.4459 114.589 46.4459C102.919 45.2865 95.919 51.0922 95.919 51.0922C121.594 54.5748 115.759 94.0556 115.759 94.0556C106.424 77.7978 87.7492 73.1558 87.7492 73.1558C95.919 70.8326 100.584 71.9963 100.584 71.9963C93.5799 63.8632 74.9096 60.3806 74.9096 60.3806ZM36.3952 104.503C36.3952 104.503 42.2302 89.4093 52.7349 89.4093C63.2396 89.4093 62.0701 90.5687 69.0746 89.4093C69.0746 89.4093 64.4049 98.6976 57.4046 99.8613C50.4001 101.021 43.3998 95.215 36.3952 104.503Z"
            fill="url(#paint1_linear)" />
    </g>
    <defs>
        <linearGradient gradientUnits="userSpaceOnUse" id="paint0_linear" x1="33.365" x2="33.365" y1="153.595"
            y2="194.248">
            <stop stop-color="#FFA843" />
            <stop offset="1" stop-color="#EB7F00" />
        </linearGradient>
        <linearGradient gradientUnits="userSpaceOnUse" id="paint1_linear" x1="118.67" x2="118.67" y1="0"
            y2="230.01">
            <stop stop-color="#FFA843" />
            <stop offset="1" stop-color="#EB7F00" />
        </linearGradient>
        <clipPath id="clip0">
            <rect fill="white" height="230" transform="translate(0.219971)" width="236.9" />
        </clipPath>
    </defs>
</svg>
